<?xml version="1.0" encoding="UTF-8" standalone="no"?>
<!DOCTYPE svg PUBLIC "-//W3C//DTD SVG 1.1//EN" "http://www.w3.org/Graphics/SVG/1.1/DTD/svg11.dtd">
<svg width="100%" height="100%" viewBox="0 0 196 44" version="1.1" xmlns="http://www.w3.org/2000/svg" xmlns:xlink="http://www.w3.org/1999/xlink" xml:space="preserve" xmlns:serif="http://www.serif.com/" style="fill-rule:evenodd;clip-rule:evenodd;stroke-linejoin:round;stroke-miterlimit:2;">
    <g transform="matrix(1,0,0,1,-6272,-437)">
        <g transform="matrix(5.12,0,0,5.75712,-8168.29,237.039)">
            <g transform="matrix(0.14292,0,0,1.01683,2780.19,-52.8898)">
                <g transform="matrix(1.17955,0,0,1.17955,-54.5586,1.48182)">
                    <g transform="matrix(0.717789,0,0,0.0897237,-515.266,-10.4723)">
                        <g transform="matrix(50,0,0,50,1188.16,987.274)">
                            <path d="M0.398,-0.087L0.393,-0.087C0.384,-0.057 0.366,-0.033 0.34,-0.015C0.314,0.003 0.284,0.012 0.249,0.012C0.183,0.012 0.132,-0.012 0.098,-0.059C0.063,-0.106 0.045,-0.174 0.045,-0.262C0.045,-0.349 0.063,-0.417 0.098,-0.464C0.132,-0.511 0.183,-0.534 0.249,-0.534C0.284,-0.534 0.314,-0.525 0.34,-0.508C0.366,-0.49 0.384,-0.466 0.393,-0.436L0.398,-0.436L0.398,-0.74L0.526,-0.74L0.526,-0L0.398,-0L0.398,-0.087ZM0.29,-0.094C0.321,-0.094 0.346,-0.101 0.367,-0.116C0.388,-0.131 0.398,-0.152 0.398,-0.179L0.398,-0.345C0.398,-0.37 0.388,-0.391 0.367,-0.406C0.346,-0.421 0.321,-0.429 0.29,-0.429C0.257,-0.429 0.23,-0.418 0.21,-0.396C0.189,-0.373 0.179,-0.343 0.179,-0.306L0.179,-0.216C0.179,-0.179 0.189,-0.149 0.21,-0.127C0.23,-0.105 0.257,-0.094 0.29,-0.094Z" style="fill:rgb(218,33,40);fill-rule:nonzero;"/>
                        </g>
                        <g transform="matrix(50,0,0,50,1220.66,987.274)">
                            <path d="M0.458,-0C0.43,-0 0.408,-0.008 0.392,-0.025C0.375,-0.041 0.365,-0.063 0.361,-0.09L0.355,-0.09C0.346,-0.056 0.329,-0.031 0.302,-0.014C0.275,0.004 0.242,0.012 0.203,0.012C0.15,0.012 0.109,-0.002 0.08,-0.03C0.051,-0.058 0.037,-0.095 0.037,-0.142C0.037,-0.196 0.056,-0.236 0.095,-0.263C0.134,-0.289 0.189,-0.302 0.26,-0.302L0.349,-0.302L0.349,-0.34C0.349,-0.369 0.341,-0.392 0.326,-0.408C0.311,-0.424 0.286,-0.432 0.252,-0.432C0.222,-0.432 0.198,-0.426 0.18,-0.413C0.161,-0.4 0.146,-0.384 0.133,-0.366L0.057,-0.434C0.076,-0.464 0.102,-0.488 0.134,-0.507C0.166,-0.525 0.208,-0.534 0.261,-0.534C0.332,-0.534 0.385,-0.518 0.422,-0.486C0.459,-0.454 0.477,-0.408 0.477,-0.348L0.477,-0.102L0.529,-0.102L0.529,-0L0.458,-0ZM0.246,-0.081C0.275,-0.081 0.299,-0.087 0.319,-0.1C0.339,-0.113 0.349,-0.131 0.349,-0.156L0.349,-0.225L0.267,-0.225C0.2,-0.225 0.167,-0.204 0.167,-0.161L0.167,-0.144C0.167,-0.123 0.174,-0.107 0.188,-0.097C0.201,-0.086 0.221,-0.081 0.246,-0.081Z" style="fill:rgb(218,33,40);fill-rule:nonzero;"/>
                        </g>
                        <g transform="matrix(50,0,0,50,1250.91,987.274)">
                            <path d="M0.237,-0C0.193,-0 0.16,-0.012 0.137,-0.035C0.114,-0.058 0.102,-0.09 0.102,-0.133L0.102,-0.42L0.025,-0.42L0.025,-0.522L0.065,-0.522C0.084,-0.522 0.097,-0.527 0.105,-0.536C0.112,-0.545 0.115,-0.558 0.115,-0.576L0.115,-0.74L0.23,-0.74L0.23,-0.522L0.337,-0.522L0.337,-0.42L0.23,-0.42L0.23,-0.102L0.329,-0.102L0.329,-0L0.237,-0Z" style="fill:rgb(218,33,40);fill-rule:nonzero;"/>
                        </g>
                        <g transform="matrix(50,0,0,50,1272.11,987.274)">
                            <path d="M0.458,-0C0.43,-0 0.408,-0.008 0.392,-0.025C0.375,-0.041 0.365,-0.063 0.361,-0.09L0.355,-0.09C0.346,-0.056 0.329,-0.031 0.302,-0.014C0.275,0.004 0.242,0.012 0.203,0.012C0.15,0.012 0.109,-0.002 0.08,-0.03C0.051,-0.058 0.037,-0.095 0.037,-0.142C0.037,-0.196 0.056,-0.236 0.095,-0.263C0.134,-0.289 0.189,-0.302 0.26,-0.302L0.349,-0.302L0.349,-0.34C0.349,-0.369 0.341,-0.392 0.326,-0.408C0.311,-0.424 0.286,-0.432 0.252,-0.432C0.222,-0.432 0.198,-0.426 0.18,-0.413C0.161,-0.4 0.146,-0.384 0.133,-0.366L0.057,-0.434C0.076,-0.464 0.102,-0.488 0.134,-0.507C0.166,-0.525 0.208,-0.534 0.261,-0.534C0.332,-0.534 0.385,-0.518 0.422,-0.486C0.459,-0.454 0.477,-0.408 0.477,-0.348L0.477,-0.102L0.529,-0.102L0.529,-0L0.458,-0ZM0.246,-0.081C0.275,-0.081 0.299,-0.087 0.319,-0.1C0.339,-0.113 0.349,-0.131 0.349,-0.156L0.349,-0.225L0.267,-0.225C0.2,-0.225 0.167,-0.204 0.167,-0.161L0.167,-0.144C0.167,-0.123 0.174,-0.107 0.188,-0.097C0.201,-0.086 0.221,-0.081 0.246,-0.081Z" style="fill:rgb(218,33,40);fill-rule:nonzero;"/>
                        </g>
                        <g transform="matrix(1,0,0,1,7.50629,0.273516)">
                            <rect x="1299" y="979" width="8" height="8" style="fill:rgb(218,33,40);"/>
                        </g>
                    </g>
                    <g transform="matrix(0.717789,0,0,0.0897237,-517.301,-10.4723)">
                        <g transform="matrix(50,0,0,53.0086,1320.51,987.274)">
                            <path d="M0.093,-0.698L0.38,-0.698C0.438,-0.698 0.484,-0.682 0.517,-0.649C0.55,-0.616 0.566,-0.573 0.566,-0.518C0.566,-0.492 0.562,-0.47 0.555,-0.452C0.548,-0.434 0.538,-0.419 0.527,-0.408C0.516,-0.396 0.503,-0.387 0.49,-0.382C0.477,-0.376 0.464,-0.372 0.453,-0.37L0.453,-0.364C0.466,-0.363 0.48,-0.36 0.496,-0.354C0.511,-0.348 0.526,-0.339 0.54,-0.326C0.554,-0.313 0.566,-0.296 0.576,-0.276C0.585,-0.255 0.59,-0.231 0.59,-0.202C0.59,-0.173 0.586,-0.147 0.577,-0.122C0.568,-0.097 0.555,-0.076 0.539,-0.058C0.523,-0.04 0.504,-0.026 0.482,-0.016C0.46,-0.005 0.436,-0 0.41,-0L0.093,-0L0.093,-0.698ZM0.177,-0.074L0.384,-0.074C0.42,-0.074 0.448,-0.083 0.469,-0.102C0.49,-0.12 0.5,-0.147 0.5,-0.182L0.5,-0.216C0.5,-0.251 0.49,-0.278 0.469,-0.297C0.448,-0.315 0.42,-0.324 0.384,-0.324L0.177,-0.324L0.177,-0.074ZM0.177,-0.396L0.37,-0.396C0.403,-0.396 0.429,-0.404 0.448,-0.421C0.467,-0.438 0.476,-0.462 0.476,-0.493L0.476,-0.527C0.476,-0.558 0.467,-0.582 0.448,-0.599C0.429,-0.616 0.403,-0.624 0.37,-0.624L0.177,-0.624L0.177,-0.396Z" style="fill:rgb(218,33,40);fill-rule:nonzero;"/>
                        </g>
                        <g transform="matrix(50,0,0,50,1355.66,987.274)">
                            <path d="M0.085,-0L0.085,-0.516L0.165,-0.516L0.165,-0.421L0.17,-0.421C0.179,-0.446 0.196,-0.468 0.22,-0.487C0.244,-0.506 0.277,-0.516 0.319,-0.516L0.35,-0.516L0.35,-0.436L0.303,-0.436C0.26,-0.436 0.226,-0.428 0.202,-0.412C0.177,-0.395 0.165,-0.375 0.165,-0.35L0.165,-0L0.085,-0Z" style="fill:rgb(218,33,40);fill-rule:nonzero;"/>
                        </g>
                        <g transform="matrix(50,0,0,50,1376.51,987.274)">
                            <path d="M0.085,-0L0.085,-0.516L0.165,-0.516L0.165,-0.432L0.169,-0.432C0.182,-0.461 0.2,-0.485 0.223,-0.502C0.246,-0.519 0.276,-0.528 0.315,-0.528C0.368,-0.528 0.411,-0.511 0.442,-0.477C0.472,-0.442 0.488,-0.394 0.488,-0.331L0.488,-0L0.408,-0L0.408,-0.317C0.408,-0.41 0.369,-0.456 0.291,-0.456C0.275,-0.456 0.26,-0.454 0.245,-0.45C0.23,-0.446 0.216,-0.44 0.204,-0.432C0.192,-0.424 0.183,-0.414 0.176,-0.402C0.169,-0.389 0.165,-0.375 0.165,-0.358L0.165,-0L0.085,-0Z" style="fill:rgb(218,33,40);fill-rule:nonzero;"/>
                        </g>
                        <g transform="matrix(50,0,0,50,1407.41,987.274)">
                            <path d="M0.28,0.012C0.245,0.012 0.214,0.006 0.185,-0.007C0.156,-0.02 0.132,-0.038 0.112,-0.062C0.091,-0.085 0.075,-0.114 0.064,-0.147C0.053,-0.18 0.047,-0.217 0.047,-0.258C0.047,-0.299 0.053,-0.336 0.064,-0.369C0.075,-0.402 0.091,-0.431 0.112,-0.455C0.132,-0.478 0.156,-0.496 0.185,-0.509C0.214,-0.522 0.245,-0.528 0.28,-0.528C0.315,-0.528 0.346,-0.522 0.375,-0.509C0.403,-0.496 0.427,-0.478 0.448,-0.455C0.469,-0.431 0.485,-0.402 0.496,-0.369C0.507,-0.336 0.513,-0.299 0.513,-0.258C0.513,-0.217 0.507,-0.18 0.496,-0.147C0.485,-0.114 0.469,-0.085 0.448,-0.062C0.427,-0.038 0.403,-0.02 0.375,-0.007C0.346,0.006 0.315,0.012 0.28,0.012ZM0.28,-0.059C0.323,-0.059 0.359,-0.072 0.386,-0.099C0.413,-0.126 0.427,-0.166 0.427,-0.221L0.427,-0.295C0.427,-0.35 0.413,-0.39 0.386,-0.417C0.359,-0.444 0.323,-0.457 0.28,-0.457C0.237,-0.457 0.201,-0.444 0.174,-0.417C0.147,-0.39 0.133,-0.35 0.133,-0.295L0.133,-0.221C0.133,-0.166 0.147,-0.126 0.174,-0.099C0.201,-0.072 0.237,-0.059 0.28,-0.059Z" style="fill:rgb(218,33,40);fill-rule:nonzero;"/>
                        </g>
                    </g>
                </g>
                <g id="path53" transform="matrix(0.830105,6.35366e-18,-5.08293e-17,-0.0518816,101.144,132.739)">
                    <rect x="217.312" y="752.858" width="14.46" height="72.28" style="fill:rgb(218,33,40);fill-rule:nonzero;"/>
                </g>
                <g id="path55" transform="matrix(0.830105,-4.07689e-33,3.26151e-32,-0.103763,53.1475,171.798)">
                    <rect x="304.052" y="752.858" width="24.09" height="72.28" style="fill:rgb(218,33,40);fill-rule:nonzero;"/>
                </g>
            </g>
        </g>
    </g>
</svg>
